REM MD5 13ce433664ee31a220a38a277c40f66d
FILE "PGA European Tour Golf (Europe) (En,De).bin" BINARY
  TRACK 01 MODE2/2352
    INDEX 01 00:00:00
  TRACK 02 AUDIO
    INDEX 00 39:56:00
    INDEX 01 39:58:00
  TRACK 03 AUDIO
    INDEX 00 43:11:29
    INDEX 01 43:13:29
REM LEADOUT 46:22:47
